HIERARCHY
ROOT Hips
{
	OFFSET 0.000000 0.000000 0.000000
	CHANNELS 6 Xposition Yposition Zposition Zrotation Yrotation Xrotation 
	JOINT LHipJoint
	{
		OFFSET 0.000000 0.000000 0.000000
		CHANNELS 3 Zrotation Yrotation Xrotation
		JOINT LeftUpLeg
		{
			OFFSET 1.363060 -1.794630 0.839290
			CHANNELS 3 Zrotation Yrotation Xrotation
			JOINT LeftLeg
			{
				OFFSET 2.448110 -6.726130 0.000000
				CHANNELS 3 Zrotation Yrotation Xrotation
				JOINT LeftFoot
				{
					OFFSET 2.562200 -7.039590 0.000000
					CHANNELS 3 Zrotation Yrotation Xrotation
					JOINT LeftToeBase
					{
						OFFSET 0.157640 -0.433110 2.322550
						CHANNELS 3 Zrotation Yrotation Xrotation
						End Site
						{
							OFFSET 0.000000 0.000000 0.000000
						}
					}
				}
			}
		}
	}
	JOINT RHipJoint
	{
		OFFSET 0.000000 0.000000 0.000000
		CHANNELS 3 Zrotation Yrotation Xrotation
		JOINT RightUpLeg
		{
			OFFSET -1.305520 -1.794630 0.839290
			CHANNELS 3 Zrotation Yrotation Xrotation
			JOINT RightLeg
			{
				OFFSET -2.542530 -6.985550 0.000000
				CHANNELS 3 Zrotation Yrotation Xrotation
				JOINT RightFoot
				{
					OFFSET -2.568260 -7.056230 0.000000
					CHANNELS 3 Zrotation Yrotation Xrotation
					JOINT RightToeBase
					{
						OFFSET -0.164730 -0.452590 2.363150
						CHANNELS 3 Zrotation Yrotation Xrotation
						End Site
						{
							OFFSET 0.000000 0.000000 0.000000
						}
					}
				}
			}
		}
	}
	JOINT LowerBack
	{
		OFFSET 0.000000 0.000000 0.000000
		CHANNELS 3 Zrotation Yrotation Xrotation
		JOINT Spine
		{
			OFFSET 0.028270 2.035590 -0.193380
			CHANNELS 3 Zrotation Yrotation Xrotation
			JOINT Spine1
			{
				OFFSET 0.056720 2.048850 -0.042750
				CHANNELS 3 Zrotation Yrotation Xrotation
				JOINT Neck
				{
					OFFSET 0.000000 0.000000 0.000000
					CHANNELS 3 Zrotation Yrotation Xrotation
					JOINT Neck1
					{
						OFFSET -0.054170 1.746240 0.172020
						CHANNELS 3 Zrotation Yrotation Xrotation
						JOINT Head
						{
							OFFSET 0.104070 1.761360 -0.123970
							CHANNELS 3 Zrotation Yrotation Xrotation
							End Site
							{
								OFFSET 0.000000 0.000000 0.000000
							}
						}
					}
				}
				JOINT LeftShoulder
				{
					OFFSET 0.000000 0.000000 0.000000
					CHANNELS 3 Zrotation Yrotation Xrotation
					JOINT LeftArm
					{
						OFFSET 3.362410 1.200890 -0.311210
						CHANNELS 3 Zrotation Yrotation Xrotation
						JOINT LeftForeArm
						{
							OFFSET 4.983000 -0.000000 -0.000000
							CHANNELS 3 Zrotation Yrotation Xrotation
							JOINT LeftHand
							{
								OFFSET 3.483560 -0.000000 -0.000000
								CHANNELS 3 Zrotation Yrotation Xrotation
								JOINT LeftFingerBase
								{
									OFFSET 0.000000 0.000000 0.000000
									CHANNELS 3 Zrotation Yrotation Xrotation
									JOINT LeftHandIndex1
									{
										OFFSET 0.715260 -0.000000 -0.000000
										CHANNELS 3 Zrotation Yrotation Xrotation
										End Site
										{
											OFFSET 0.000000 0.000000 0.000000
										}
									}
								}
								JOINT LThumb
								{
									OFFSET 0.000000 0.000000 0.000000
									CHANNELS 3 Zrotation Yrotation Xrotation
									End Site
									{
										OFFSET 0.000000 0.000000 0.000000
									}
								}
							}
						}
					}
				}
				JOINT RightShoulder
				{
					OFFSET 0.000000 0.000000 0.000000
					CHANNELS 3 Zrotation Yrotation Xrotation
					JOINT RightArm
					{
						OFFSET -3.136600 1.374050 -0.404650
						CHANNELS 3 Zrotation Yrotation Xrotation
						JOINT RightForeArm
						{
							OFFSET -5.241900 -0.000000 -0.000000
							CHANNELS 3 Zrotation Yrotation Xrotation
							JOINT RightHand
							{
								OFFSET -3.444170 -0.000000 -0.000000
								CHANNELS 3 Zrotation Yrotation Xrotation
								JOINT RightFingerBase
								{
									OFFSET 0.000000 0.000000 0.000000
									CHANNELS 3 Zrotation Yrotation Xrotation
									JOINT RightHandIndex1
									{
										OFFSET -0.622530 -0.000000 -0.000000
										CHANNELS 3 Zrotation Yrotation Xrotation
										End Site
										{
											OFFSET 0.000000 0.000000 0.000000
										}
									}
								}
								JOINT RThumb
								{
									OFFSET 0.000000 0.000000 0.000000
									CHANNELS 3 Zrotation Yrotation Xrotation
									End Site
									{
										OFFSET 0.000000 0.000000 0.000000
									}
								}
							}
						}
					}
				}
			}
		}
	}
}
MOTION
Frames: 7
Frame Time: 0.008333
0.244904 15.394859 -1.280768 -144.692935 78.069355 -120.008332 -9.912724 -2.439581 -0.942991 -18.642244 -0.188941 -70.738329 -1.332784 3.871377 54.081418 3.291226 11.416006 -20.381096 177.764300 -0.000000 -4.156800 9.464552 -3.206436 -7.843940 11.808132 -23.947177 -26.880466 1.066712 -5.310246 61.566900 0.390159 6.416598 -2.017865 0.450500 -0.000000 -85.994800 -1.159887 1.340821 11.324843 -0.864096 1.614325 -0.720871 -4.857937 1.663467 -0.282543 8.538788 -8.123703 -8.605584 -1.134028 -0.040922 -0.694945 0.000000 0.000000 0.000000 3.116339 19.375089 2.687545 -76.548566 24.239994 11.271725 -0.311677 -82.359612 0.003793 -1.232290 3.833744 -0.039925 0.008534 0.115238 0.000000 0.000000 0.000000 0.000000 0.000000 0.000000 0.000000 1.567879 -0.394454 -0.729929 59.308032 9.870321 3.323383 179.763694 81.511112 179.957900 -5.973281 1.798843 -0.118731 0.104487 -0.449176 0.000000 0.000000 0.000000 0.000000 0.000000 0.000000 0.000000 
0.442375 15.339894 -1.320989 -143.616728 78.021804 -119.487795 -9.965318 -2.567904 -1.098965 -18.214585 0.177308 -70.515421 -1.118626 4.014923 56.472574 3.350709 11.807319 -21.251831 177.471600 0.000000 -5.517500 9.626486 -3.228122 -7.763356 11.016132 -23.930786 -26.345336 0.788677 -5.378585 62.808835 0.398890 6.957787 0.188508 0.749600 -0.000000 -86.726500 -1.441444 1.326854 11.368817 -0.945370 1.605574 -0.749564 -4.966507 1.657366 -0.407020 8.639853 -7.916692 -8.643217 -1.189330 -0.044582 -0.704055 0.000000 0.000000 0.000000 2.900659 19.193615 2.711971 -76.084959 23.730343 11.176354 -0.310978 -82.507596 0.003420 -1.110467 3.881900 -0.036297 0.005246 0.116897 0.000000 0.000000 0.000000 0.000000 0.000000 0.000000 0.000000 1.811587 -0.094549 -0.661865 59.791422 9.558721 3.576232 179.760831 81.850650 179.961792 -5.443732 1.824917 -0.109237 0.092907 -0.448163 0.000000 0.000000 0.000000 0.000000 0.000000 0.000000 0.000000 
0.636748 15.288639 -1.359959 -142.857646 77.987462 -119.260453 -10.004728 -2.660340 -1.267061 -17.937793 0.543885 -70.202396 -0.938284 4.144837 58.725162 3.429563 12.231763 -22.326188 177.110000 -0.000001 -6.310500 9.789185 -3.223475 -7.682150 10.218861 -23.877675 -25.911480 0.509320 -5.442460 64.084394 0.374106 7.390377 2.464571 1.098700 0.000000 -86.920601 -1.733603 1.306341 11.423814 -1.029797 1.589627 -0.778983 -5.081364 1.643742 -0.544529 8.727832 -7.688222 -8.661128 -1.255249 -0.049303 -0.708761 0.000000 0.000000 0.000000 2.634081 18.946013 2.735129 -75.529839 23.077011 11.125399 -0.313505 -82.580607 0.002837 -0.930850 3.966492 -0.030863 0.000648 0.118393 0.000000 0.000000 0.000000 0.000000 0.000000 0.000000 0.000000 2.089438 0.213509 -0.589693 60.329381 9.220979 3.785758 179.762333 82.263393 179.965233 -4.974706 1.856544 -0.101142 0.082293 -0.447103 0.000000 0.000000 0.000000 0.000000 0.000000 0.000000 0.000000 
0.827648 15.241792 -1.398164 -142.423625 77.957382 -119.331488 -10.035580 -2.717799 -1.441509 -17.792201 0.898654 -69.785202 -0.791653 4.257988 60.785343 3.526183 12.685565 -23.565887 176.683900 -0.000000 -6.616100 9.945626 -3.195554 -7.603866 9.438587 -23.791939 -25.575888 0.236517 -5.501286 65.378776 0.316680 7.670865 4.729363 1.467100 -0.000000 -86.465901 -2.025095 1.279809 11.488731 -1.114597 1.566707 -0.808001 -5.200919 1.622759 -0.690439 8.795518 -7.446433 -8.658159 -1.330810 -0.055025 -0.708636 0.000000 0.000000 0.000000 2.322074 18.634587 2.756157 -74.893123 22.270274 11.116735 -0.320002 -82.563774 0.002000 -0.686876 4.092749 -0.023121 -0.005405 0.119652 0.000000 0.000000 0.000000 0.000000 0.000000 0.000000 0.000000 2.394716 0.516924 -0.515561 60.920140 8.865152 3.955165 179.769281 82.766777 179.968104 -4.583878 1.896957 -0.094646 0.072969 -0.445965 0.000000 0.000000 0.000000 0.000000 0.000000 0.000000 0.000000 
1.014780 15.199823 -1.436081 -142.305894 77.924228 -119.691538 -10.062833 -2.743330 -1.616925 -17.750490 1.232496 -69.254801 -0.677173 4.352418 62.617829 3.636585 13.157708 -24.920690 176.203500 0.000000 -6.521801 10.089829 -3.148101 -7.531400 8.695913 -23.675722 -25.334498 -0.023558 -5.555666 66.682969 0.230303 7.751674 6.882743 1.809500 -0.000000 -85.268800 -2.304155 1.247934 11.562089 -1.196698 1.537267 -0.835087 -5.322629 1.594858 -0.838260 8.835516 -7.200536 -8.635161 -1.414176 -0.061591 -0.703754 0.000000 0.000000 0.000000 1.973615 18.269391 2.774413 -74.189448 21.301022 11.149663 -0.331250 -82.442960 0.000874 -0.375322 4.263235 -0.012573 -0.012987 0.120639 0.000000 0.000000 0.000000 0.000000 0.000000 0.000000 0.000000 2.717335 0.802125 -0.442192 61.561361 8.503319 4.091374 179.782612 83.380982 179.970319 -4.284327 1.949917 -0.090349 0.065153 -0.444688 0.000000 0.000000 0.000000 0.000000 0.000000 0.000000 0.000000 
1.198044 15.162947 -1.474217 -142.471915 77.881385 -120.308871 -10.091753 -2.741662 -1.788427 -17.780561 1.540416 -68.609423 -0.592090 4.427443 64.205038 3.754751 13.631196 -26.332598 175.685100 0.000000 -6.110900 10.216717 -3.085472 -7.466582 8.011127 -23.527579 -25.184245 -0.267579 -5.607099 67.994295 0.120588 7.583768 8.813798 2.071701 0.000000 -83.259200 -2.556913 1.211985 11.641497 -1.272608 1.502422 -0.859927 -5.443807 1.561070 -0.985234 8.839367 -6.957153 -8.590827 -1.503296 -0.068870 -0.693425 0.000000 0.000000 0.000000 1.590090 17.846745 2.788914 -73.435558 20.186431 11.204654 -0.347168 -82.224256 -0.000560 0.001146 4.479715 0.001480 -0.021971 0.121316 0.000000 0.000000 0.000000 0.000000 0.000000 0.000000 0.000000 3.043468 1.059579 -0.370424 62.250303 8.143522 4.202752 179.802753 84.125542 179.971837 -4.083607 2.019094 -0.088451 0.058990 -0.443198 0.000000 0.000000 0.000000 0.000000 0.000000 0.000000 0.000000 
1.377321 15.131105 -1.513182 -142.873323 77.823022 -121.137174 -10.126168 -2.717918 -1.952233 -17.852840 1.819739 -67.852883 -0.532860 4.483261 65.545754 3.873481 14.085281 -27.743751 175.149500 -0.000000 -5.481000 10.323908 -3.011237 -7.410153 7.397252 -23.345290 -25.124648 -0.495215 -5.657780 69.313551 -0.006461 7.125394 10.419661 2.201600 -0.000000 -80.511400 -2.773935 1.172423 11.724281 -1.339520 1.462649 -0.880453 -5.560737 1.522013 -1.121804 8.801885 -6.724336 -8.530404 -1.595071 -0.076536 -0.678927 0.000000 0.000000 0.000000 1.188152 17.395148 2.799709 -72.654542 18.914399 11.287508 -0.368548 -81.894559 -0.002322 0.438105 4.739464 0.019638 -0.032281 0.121754 0.000000 0.000000 0.000000 0.000000 0.000000 0.000000 0.000000 3.359000 1.278629 -0.303950 62.982759 7.801662 4.299661 179.829938 85.019481 179.972654 -3.984039 2.108590 -0.089251 0.054455 -0.441396 -0.000000 0.000000 0.000000 0.000000 0.000000 0.000000 0.000000 
